M48
; DRILL file {KiCad 8.0.7-8.0.7-0~ubuntu22.04.1} date 2025-01-06T19:22:07+0100
; FORMAT={-:-/ absolute / inch / decimal}
; #@! TF.CreationDate,2025-01-06T19:22:07+01:00
; #@! TF.GenerationSoftware,Kicad,Pcbnew,8.0.7-8.0.7-0~ubuntu22.04.1
; #@! TF.FileFunction,Plated,1,2,PTH
FMAT,2
INCH
; #@! TA.AperFunction,Plated,PTH,ViaDrill
T1C0.0118
; #@! TA.AperFunction,Plated,PTH,ComponentDrill
T2C0.0276
; #@! TA.AperFunction,Plated,PTH,ComponentDrill
T3C0.0295
; #@! TA.AperFunction,Plated,PTH,ComponentDrill
T4C0.0315
; #@! TA.AperFunction,Plated,PTH,ComponentDrill
T5C0.0354
; #@! TA.AperFunction,Plated,PTH,ComponentDrill
T6C0.0394
; #@! TA.AperFunction,Plated,PTH,ComponentDrill
T7C0.0433
; #@! TA.AperFunction,Plated,PTH,ComponentDrill
T8C0.0472
%
G90
G05
T1
X7.35Y-2.35
X7.5375Y-2.4875
X8.025Y-2.2
X8.225Y-2.2
X8.325Y-4.575
X8.35Y-3.1
X8.575Y-4.05
X8.575Y-5.2
X8.675Y-4.5
X8.975Y-3.65
X8.975Y-4.8
X9.15Y-3.725
X9.15Y-3.85
X9.15Y-4.875
X9.15Y-5.0
T2
X6.0Y-4.6925
X6.0Y-4.825
X6.3Y-4.6925
X6.3Y-4.825
X7.45Y-4.5008
X7.45Y-4.5992
X7.65Y-4.325
X7.65Y-4.4234
X7.65Y-4.5758
X7.65Y-4.6742
X8.4Y-3.7758
X8.4Y-3.8742
X8.4Y-4.9258
X8.4Y-5.0242
X8.425Y-1.95
X8.425Y-2.2
X8.425Y-4.1508
X8.425Y-4.2492
X8.425Y-5.3008
X8.425Y-5.3992
X8.55Y-3.675
X8.55Y-3.975
X8.55Y-4.825
X8.55Y-5.125
X8.6Y-4.1508
X8.6Y-4.2492
X8.6Y-5.3016
X8.6Y-5.4
X8.675Y-3.675
X8.675Y-3.975
X8.675Y-4.825
X8.675Y-5.125
X8.725Y-1.95
X8.725Y-2.2
X8.775Y-4.05
X8.775Y-4.35
X8.775Y-5.2
X8.775Y-5.5
X8.9Y-4.05
X8.9Y-4.35
X8.9Y-5.2
X8.9Y-5.5
X9.025Y-4.05
X9.025Y-4.35
X9.025Y-5.2
X9.025Y-5.5
X9.125Y-3.55
X9.1258Y-4.7
X9.15Y-4.05
X9.15Y-4.35
X9.15Y-5.2
X9.15Y-5.5
X9.2234Y-3.55
X9.2242Y-4.7
X9.275Y-3.675
X9.275Y-3.975
X9.275Y-4.825
X9.275Y-5.125
X9.3758Y-3.55
X9.3758Y-4.7
X9.4Y-3.675
X9.4Y-3.975
X9.4Y-4.825
X9.4Y-5.125
X9.4742Y-3.55
X9.4742Y-4.7
X9.525Y-3.675
X9.525Y-3.975
X9.525Y-4.825
X9.525Y-5.125
X9.65Y-3.675
X9.65Y-3.975
X9.65Y-4.825
X9.65Y-5.125
X9.775Y-3.675
X9.775Y-3.975
X9.775Y-4.825
X9.775Y-5.125
T3
X8.075Y-2.05
X8.125Y-2.1
X8.175Y-2.05
T4
X6.4776Y-4.825
X6.576Y-4.825
X6.749Y-4.825
X6.8474Y-4.825
X8.375Y-3.5
X8.4734Y-3.5
X8.5026Y-4.675
X8.601Y-4.675
X8.675Y-3.4516
X8.675Y-3.55
X8.775Y-4.625
X8.775Y-4.7234
X9.3276Y-4.25
X9.3276Y-5.4
X9.426Y-4.25
X9.426Y-5.4
X9.5Y-2.0031
X9.5Y-2.2
T5
X5.95Y-4.9925
X6.05Y-3.8925
X6.05Y-4.2925
X6.35Y-4.9925
X8.325Y-2.075
X8.325Y-2.325
X8.725Y-2.075
X8.725Y-2.325
T6
X6.725Y-6.475
X6.725Y-6.575
X6.725Y-6.675
X6.725Y-6.775
X6.725Y-6.875
X6.725Y-6.975
X6.725Y-7.075
X6.725Y-7.175
X6.725Y-7.275
X6.7291Y-3.2081
X6.7947Y-3.1326
X6.8603Y-3.0572
X6.9259Y-2.9817
X6.9915Y-2.9062
X7.0571Y-2.8307
X7.1227Y-2.7553
X7.1883Y-2.6798
X7.2539Y-2.6043
X7.65Y-4.925
X7.65Y-5.15
X9.175Y-2.625
X9.275Y-2.625
X9.375Y-2.625
X9.475Y-2.625
X9.575Y-2.625
X9.675Y-2.625
T7
X6.35Y-4.4559
X6.45Y-4.4559
X6.55Y-4.4559
T8
X6.9451Y-4.5
X7.2404Y-4.5
M30
